<svg width="88" height="32" viewBox="0 0 88 32" fill="none" xmlns="http://www.w3.org/2000/svg">
<path d="M7 7V13.887C7 18.8496 10.9693 22.963 15.9318 22.9997C17.1194 23.0088 18.297 22.7826 19.3968 22.3344C20.4966 21.8861 21.4968 21.2246 22.3398 20.388C23.1828 19.5514 23.8518 18.5563 24.3084 17.4599C24.7649 16.3635 25 15.1876 25 14V7C25 6.73478 24.8946 6.48043 24.7071 6.29289C24.5196 6.10536 24.2652 6 24 6H8C7.73478 6 7.48043 6.10536 7.29289 6.29289C7.10536 6.48043 7 6.73478 7 7Z" stroke="#979797" stroke-width="2" stroke-linecap="round" stroke-linejoin="round"/>
<path d="M12 28H20" stroke="#979797" stroke-width="2" stroke-linecap="round" stroke-linejoin="round"/>
<path d="M16 23V28" stroke="#979797" stroke-width="2" stroke-linecap="round" stroke-linejoin="round"/>
<path d="M24.777 16H26C27.0609 16 28.0783 15.5786 28.8285 14.8284C29.5786 14.0783 30 13.0609 30 12V10C30 9.73478 29.8947 9.48043 29.7071 9.29289C29.5196 9.10536 29.2652 9 29 9H25" stroke="#979797" stroke-width="2" stroke-linecap="round" stroke-linejoin="round"/>
<path d="M7.24552 16H5.98413C4.92326 16 3.90585 15.5786 3.1557 14.8284C2.40556 14.0783 1.98413 13.0609 1.98413 12V10C1.98413 9.73478 2.08949 9.48043 2.27702 9.29289C2.46456 9.10536 2.71891 9 2.98413 9H6.98413" stroke="#979797" stroke-width="2" stroke-linecap="round" stroke-linejoin="round"/>
<path d="M72 28C78.6274 28 84 22.6274 84 16C84 9.37258 78.6274 4 72 4C65.3726 4 60 9.37258 60 16C60 22.6274 65.3726 28 72 28Z" stroke="#979797" stroke-width="2" stroke-miterlimit="10"/>
<path d="M72 20C74.7614 20 77 17.7614 77 15C77 12.2386 74.7614 10 72 10C69.2386 10 67 12.2386 67 15C67 17.7614 69.2386 20 72 20Z" stroke="#979797" stroke-width="2" stroke-miterlimit="10"/>
<path d="M63.9749 24.9218C64.7281 23.4408 65.8765 22.1971 67.2929 21.3284C68.7093 20.4598 70.3384 20 72 20C73.6615 20 75.2906 20.4598 76.707 21.3284C78.1234 22.1971 79.2718 23.4407 80.0251 24.9217" stroke="#979797" stroke-width="2" stroke-linecap="round" stroke-linejoin="round"/>
</svg>
